<svg t="1735990796589" class="icon" viewBox="0 0 1024 1024" version="1.1" xmlns="http://www.w3.org/2000/svg" p-id="3904" width="200" height="200"><path d="M174.848 635.818667q39.381333 39.338667 92.416 45.653333A42.666667 42.666667 0 0 0 277.333333 682.666667h10.666667v-1.365334a42.666667 42.666667 0 0 0 0-82.602666V597.333333q-30.933333 0-52.778667-21.888Q213.333333 553.6 213.333333 522.666667V298.666667q0-35.328 25.002667-60.330667T298.666667 213.333333h224q30.933333 0 52.778666 21.888Q597.333333 257.066667 597.333333 288h1.365334a42.666667 42.666667 0 0 0 82.602666 0H682.666667V277.333333a42.666667 42.666667 0 0 0-1.194667-10.069333q-6.314667-53.034667-45.653333-92.416Q588.928 128 522.666667 128H298.666667Q227.968 128 178.005333 178.005333 128 227.968 128 298.666667v224q0 66.261333 46.848 113.152z" p-id="3905" fill="#f3ca7e"></path><path d="M341.333333 725.333333v-213.333333a170.666667 170.666667 0 0 1 170.666667-170.666667h213.333333a170.666667 170.666667 0 0 1 170.666667 170.666667v213.333333a170.666667 170.666667 0 0 1-170.666667 170.666667h-213.333333a170.666667 170.666667 0 0 1-170.666667-170.666667z m85.333334 0q0 35.328 25.002666 60.330667T512 810.666667h213.333333q35.328 0 60.330667-25.002667T810.666667 725.333333v-213.333333q0-35.328-25.002667-60.330667T725.333333 426.666667h-213.333333q-35.328 0-60.330667 25.002666T426.666667 512v213.333333z" p-id="3906" fill="#f3ca7e"></path></svg>